<svg xmlns="http://www.w3.org/2000/svg" width="60.485" height="60.485" viewBox="0 0 60.485 60.485">
  <path id="Icon_awesome-spotify" data-name="Icon awesome-spotify" d="M30.242.563A30.242,30.242,0,1,0,60.485,30.8,30.253,30.253,0,0,0,30.242.563Zm12.28,44.5a2.327,2.327,0,0,1-1.3-.439c-7.609-4.585-16.463-4.78-25.206-2.988a7.874,7.874,0,0,1-1.451.317,1.9,1.9,0,0,1-1.927-1.927,1.932,1.932,0,0,1,1.658-2.049c9.987-2.207,20.194-2.012,28.9,3.195a2.062,2.062,0,0,1,1.183,2.012,1.843,1.843,0,0,1-1.854,1.878Zm3.28-8a3.011,3.011,0,0,1-1.5-.512c-7.622-4.512-18.987-6.329-29.1-3.585a5.022,5.022,0,0,1-1.451.317,2.368,2.368,0,0,1-2.366-2.366,2.4,2.4,0,0,1,1.89-2.524,41.017,41.017,0,0,1,11.926-1.658A42.687,42.687,0,0,1,46.79,32.28a2.542,2.542,0,0,1,1.378,2.4A2.363,2.363,0,0,1,45.8,37.061Zm3.78-9.292a2.8,2.8,0,0,1-1.573-.476C39.327,22.11,23.8,20.866,13.755,23.671a5.792,5.792,0,0,1-1.573.317A2.814,2.814,0,0,1,9.341,21.11,2.881,2.881,0,0,1,11.463,18.2a51.109,51.109,0,0,1,14.329-1.854c8.9,0,18.231,1.854,25.047,5.829a2.863,2.863,0,0,1,1.573,2.756,2.825,2.825,0,0,1-2.829,2.841Z" transform="translate(0 -0.563)" fill="#fff"/>
</svg>
